<?xml version="1.0" standalone="no"?>
<!DOCTYPE svg PUBLIC "-//W3C//DTD SVG 20010904//EN"
 "http://www.w3.org/TR/2001/REC-SVG-20010904/DTD/svg10.dtd">
<svg version="1.0" xmlns="http://www.w3.org/2000/svg"
 width="1024.000000pt" height="1536.000000pt" viewBox="0 0 1024.000000 1536.000000"
 preserveAspectRatio="xMidYMid meet">

<g transform="translate(0.000000,1536.000000) scale(0.100000,-0.100000)"
fill="#000000" stroke="none">
<path d="M3829 11589 c-368 -54 -666 -270 -829 -602 -76 -155 -109 -311 -110
-512 0 -225 55 -426 163 -593 190 -294 487 -474 827 -502 63 -5 468 -10 900
-10 862 0 844 1 960 -61 303 -161 402 -569 211 -871 -56 -88 -169 -194 -258
-241 -72 -38 -202 -77 -255 -77 l-28 0 0 490 0 490 -250 0 -250 0 0 -755 0
-755 190 0 c225 0 348 12 488 46 502 123 891 527 953 990 17 130 6 325 -25
447 -88 344 -343 623 -668 731 -177 59 -159 58 -1083 61 -949 3 -933 2 -1068
72 -102 54 -213 165 -261 263 -156 320 -24 708 289 850 125 57 158 60 694 60
l491 0 0 -480 0 -480 250 0 250 0 0 480 0 480 920 0 920 0 0 245 0 245 -1682
-1 c-926 -1 -1708 -5 -1739 -10z"/>
<path d="M6858 9548 l-3 -913 -24 -105 c-47 -212 -122 -389 -241 -566 -224
-334 -562 -592 -927 -707 -182 -58 -288 -72 -538 -72 -211 1 -241 3 -356 28
-167 35 -275 74 -444 157 -171 85 -296 173 -433 305 -356 341 -532 746 -532
1223 l0 132 -240 0 -240 0 0 -107 c0 -258 38 -529 100 -714 180 -537 621
-1036 1145 -1294 316 -155 627 -225 1005 -225 358 0 641 60 938 200 694 328
1182 993 1261 1722 7 61 11 423 11 973 l0 875 -240 0 -239 0 -3 -912z"/>
<path d="M3385 5894 c-89 -14 -210 -51 -285 -87 -149 -72 -266 -212 -299 -357
-6 -25 -11 -91 -11 -147 0 -164 42 -269 147 -363 109 -97 230 -143 580 -221
360 -80 436 -124 450 -261 7 -74 -11 -132 -58 -183 -49 -53 -117 -83 -233
-102 -107 -18 -239 -7 -330 27 -110 42 -188 143 -202 263 l-7 57 -200 0 -200
0 7 -80 c13 -163 69 -285 177 -391 144 -141 353 -209 644 -209 379 1 646 128
753 358 39 86 52 150 52 262 0 178 -35 266 -149 381 -119 119 -214 158 -583
244 -106 25 -221 54 -255 66 -129 43 -192 120 -179 223 8 74 47 123 130 166
64 32 76 35 179 39 217 7 336 -49 382 -180 8 -23 15 -57 15 -75 l0 -34 200 0
200 0 0 50 c0 250 -187 467 -460 535 -64 16 -395 29 -465 19z"/>
<path d="M4540 5700 l0 -180 320 0 320 0 0 -815 0 -815 210 0 210 0 0 815 0
815 325 0 325 0 0 180 0 180 -855 0 -855 0 0 -180z"/>
<path d="M7129 5188 c0 -381 -2 -704 -4 -718 -3 -14 -7 -42 -10 -63 -11 -80
-74 -161 -147 -191 -22 -9 -66 -16 -105 -16 -169 1 -256 107 -263 323 0 4 -91
7 -201 7 l-202 0 7 -86 c16 -191 68 -316 182 -430 81 -82 179 -136 291 -159
101 -22 283 -19 377 5 179 45 328 163 405 320 77 157 75 142 76 965 l0 730
-202 3 -203 2 -1 -692z"/>
</g>
</svg>
